<svg xmlns="http://www.w3.org/2000/svg" xmlns:xlink="http://www.w3.org/1999/xlink" version="1.1" id="Vrstva_1" x="0px" y="0px" width="322.088px" height="99.212px" viewBox="0 0 322.088 99.212" enable-background="new 0 0 322.088 99.212" xml:space="preserve">
<rect x="0" y="0" fill="#E4002B" width="99.213" height="99.212"></rect>
<polygon fill="#003DA5" points="103.241 0.000976563 103.241 99.212 322.088 99.212 322.088 99.212 322.088 0.000976563"></polygon>
<path fill="#FFFFFF" d="M46.613,82.673h11.533v-38.926c0,-3.956,3.433,-7.162,7.665,-7.162h17.199v-10.229l-36.397,0.002V82.673z"></path>
<polygon fill="#FFFFFF" points="46.613 15.177 15.946 15.177 15.946 26.357 46.613 26.357 46.613 26.355"></polygon>
<polygon fill="#FFFFFF" points="134.242 52.157 155.225 52.157 155.225 44.074 134.242 44.074 134.242 29.152 156.779 29.152 156.779 21.07 124.916 21.07 124.916 75.471 134.242 75.471"></polygon>
<polygon fill="#FFFFFF" points="286.949 75.471 286.949 29.152 302.492 29.152 302.492 21.07 262.08 21.07 262.08 29.152 277.623 29.152 277.623 75.471"></polygon>
<polygon fill="#FFFFFF" points="201.463 29.152 201.463 21.07 168.045 21.07 168.045 75.471 202.24 75.471 202.24 67.389 177.372 67.389 177.372 52.157 199.91 52.157 199.91 44.074 177.372 44.074 177.372 29.152"></polygon>
<polygon fill="#FFFFFF" points="214.908 21.07 214.908 75.471 224.234 75.471 224.234 59.54 230.219 51.846 245.527 75.471 256.795 75.471 236.357 43.997 254.232 21.07 244.051 21.07 224.623 45.939 224.234 45.939 224.234 21.07"></polygon>
</svg>